<svg width="18" height="18" viewBox="0 0 18 18" fill="none" xmlns="http://www.w3.org/2000/svg">
<g clip-path="url(#clip0)">
<path d="M8.43828 16.2C7.53828 15.3 7.53828 13.95 8.43828 13.05C9.33828 12.15 10.6883 12.15 11.5883 13.05L12.2633 13.725L14.4008 11.3625C13.6133 10.9125 12.9383 10.9125 12.1508 10.9125C11.3633 10.8 10.5758 10.575 10.5758 9.9C10.5758 9.225 11.4758 9.45 12.1508 8.2125C12.1508 8.2125 15.1883 0 8.88828 0C2.70078 0 5.73828 8.2125 5.73828 8.2125C6.41328 9.3375 7.31328 9.1125 7.31328 9.9C7.31328 10.6875 6.52578 10.6875 5.73828 10.8C4.50078 10.9125 3.37578 10.6875 2.25078 12.7125C1.57578 13.95 1.23828 18 1.23828 18H10.2383L8.43828 16.2Z" fill="#828282" fill-opacity="0.6"/>
<path d="M14.4004 18H16.7629C16.7629 18 16.6504 16.9875 16.5379 15.75L14.4004 18Z" fill="#828282" fill-opacity="0.6"/>
<path d="M12.375 18C12.0375 18 11.8125 17.8875 11.5875 17.6625L9.3375 15.4125C8.8875 14.9625 8.8875 14.2875 9.3375 13.8375C9.7875 13.3875 10.4625 13.3875 10.9125 13.8375L12.375 15.3L16.0875 11.25C16.5375 10.8 17.2125 10.8 17.6625 11.1375C18.1125 11.5875 18.1125 12.2625 17.775 12.7125L13.275 17.55C12.9375 17.8875 12.7125 18 12.375 18Z" fill="#828282" fill-opacity="0.6"/>
</g>
<defs>
<clipPath id="clip0">
<rect width="18" height="18" fill="white"/>
</clipPath>
</defs>
</svg>
