<svg width="18" height="16" viewBox="0 0 18 16" fill="none" xmlns="http://www.w3.org/2000/svg">
<path d="M3.71268 15.0658C3.59303 15.1698 3.44618 15.2375 3.28938 15.261C3.13257 15.2845 2.97231 15.2628 2.82742 15.1984C2.68253 15.134 2.55902 15.0296 2.47138 14.8975C2.38375 14.7653 2.33563 14.6109 2.33268 14.4524V12.5833C1.89065 12.5833 1.46673 12.4077 1.15417 12.0951C0.84161 11.7825 0.666016 11.3586 0.666016 10.9166V5.08325C0.666016 4.64122 0.84161 4.2173 1.15417 3.90474C1.46673 3.59218 1.89065 3.41659 2.33268 3.41659H11.4993C11.9414 3.41659 12.3653 3.59218 12.6779 3.90474C12.9904 4.2173 13.166 4.64122 13.166 5.08325V10.9166C13.166 11.3586 12.9904 11.7825 12.6779 12.0951C12.3653 12.4077 11.9414 12.5833 11.4993 12.5833H7.33518L3.71268 15.0658ZM13.9993 8.43075C13.9967 8.53323 13.9967 8.63577 13.9993 8.73825V8.42992C14.0035 8.34075 14.0043 7.22408 14.0027 5.08075C14.002 4.41814 13.7383 3.7829 13.2696 3.3146C12.8008 2.8463 12.1653 2.58325 11.5027 2.58325H4.83268V1.74992C4.83268 1.30789 5.00828 0.883968 5.32084 0.571407C5.6334 0.258847 6.05732 0.083252 6.49935 0.083252H15.666C16.108 0.083252 16.532 0.258847 16.8445 0.571407C17.1571 0.883968 17.3327 1.30789 17.3327 1.74992V7.58325C17.3327 8.02528 17.1571 8.4492 16.8445 8.76176C16.532 9.07432 16.108 9.24992 15.666 9.24992V11.1191C15.6631 11.2776 15.6149 11.432 15.5273 11.5642C15.4397 11.6963 15.3162 11.8007 15.1713 11.8651C15.0264 11.9295 14.8661 11.9512 14.7093 11.9277C14.5525 11.9042 14.4057 11.8365 14.286 11.7324L13.9993 11.5358V8.43075Z" fill="black" fill-opacity="0.7"/>
</svg>
