<svg width="19" height="20" viewBox="0 0 19 20" fill="none" xmlns="http://www.w3.org/2000/svg">
<path d="M9.00061 19.0445C9.35057 19.0364 9.68641 18.9049 9.94872 18.6731C10.211 18.4413 10.3829 18.1241 10.4339 17.7778H7.51172C7.5642 18.1336 7.74412 18.4581 8.018 18.6911C8.29188 18.9241 8.64107 19.0497 9.00061 19.0445Z" fill="black" fill-opacity="0.7"/>
<path d="M17.2509 15.6277L17.062 15.4611C16.5261 14.9836 16.0571 14.4361 15.6675 13.8333C15.2421 13.0014 14.9871 12.0929 14.9175 11.1611V8.41664C14.9153 8.08328 14.8855 7.75067 14.8286 7.42219C13.8876 7.22877 13.0423 6.71609 12.4359 5.97096C11.8294 5.22583 11.4991 4.29402 11.5009 3.33331V2.98331C10.9208 2.69785 10.2976 2.51014 9.65642 2.42775V1.72775C9.65642 1.53105 9.57828 1.3424 9.43919 1.20331C9.3001 1.06422 9.11146 0.986084 8.91475 0.986084C8.71805 0.986084 8.52941 1.06422 8.39032 1.20331C8.25123 1.3424 8.17309 1.53105 8.17309 1.72775V2.45553C6.73738 2.65806 5.42341 3.37316 4.47377 4.46882C3.52413 5.56448 3.00294 6.96671 3.00642 8.41664V11.1611C2.93684 12.0929 2.68186 13.0014 2.25642 13.8333C1.87358 14.4346 1.41209 14.982 0.884201 15.4611L0.695312 15.6277V17.1944H17.2509V15.6277Z" fill="black" fill-opacity="0.7"/>
<path d="M15.6664 6.11122C17.2006 6.11122 18.4442 4.86757 18.4442 3.33344C18.4442 1.79932 17.2006 0.555664 15.6664 0.555664C14.1323 0.555664 12.8887 1.79932 12.8887 3.33344C12.8887 4.86757 14.1323 6.11122 15.6664 6.11122Z" fill="#3CB161"/>
</svg>