<svg width="18" height="18" viewBox="0 0 18 18" fill="none" xmlns="http://www.w3.org/2000/svg">
<path d="M1.24143 1.24143H11.1728V7.32441H12.4143V1.24143C12.4143 0.91218 12.2835 0.596418 12.0507 0.363605C11.8178 0.130793 11.5021 0 11.1728 0H1.24143C0.91218 0 0.596418 0.130793 0.363605 0.363605C0.130793 0.596418 0 0.91218 0 1.24143V16.1385C0 16.4678 0.130793 16.7835 0.363605 17.0164C0.596418 17.2492 0.91218 17.38 1.24143 17.38H11.1728C11.5021 17.38 11.8178 17.2492 12.0507 17.0164C12.2835 16.7835 12.4143 16.4678 12.4143 16.1385H1.24143V1.24143Z" fill="#DA1823"/>
<path d="M14.3748 8.24276C14.2561 8.14107 14.1033 8.08793 13.9471 8.09397C13.7909 8.1 13.6427 8.16476 13.5322 8.27531C13.4216 8.38585 13.3568 8.53404 13.3508 8.69026C13.3448 8.84648 13.3979 8.99922 13.4996 9.11797L15.5976 11.1725H6.59728C6.43265 11.1725 6.27477 11.2379 6.15837 11.3543C6.04196 11.4707 5.97656 11.6286 5.97656 11.7932C5.97656 11.9579 6.04196 12.1157 6.15837 12.2322C6.27477 12.3486 6.43265 12.414 6.59728 12.414H15.5976L13.4996 14.5616C13.4346 14.6173 13.3819 14.6857 13.3446 14.7627C13.3073 14.8398 13.2864 14.9236 13.2831 15.0091C13.2798 15.0946 13.2942 15.1798 13.3254 15.2595C13.3566 15.3392 13.4039 15.4115 13.4644 15.472C13.5249 15.5325 13.5973 15.5798 13.6769 15.611C13.7566 15.6422 13.8418 15.6566 13.9273 15.6533C14.0128 15.65 14.0967 15.6291 14.1737 15.5918C14.2507 15.5546 14.3192 15.5018 14.3748 15.4368L17.9998 11.8367L14.3748 8.24276Z" fill="#DA1823"/>
</svg>
