<svg width="198" height="144" viewBox="0 0 198 144" fill="none" xmlns="http://www.w3.org/2000/svg">
<g clip-path="url(#clip0)">
<path d="M197.714 141.931H0.286127C0.210242 141.931 0.137464 141.901 0.0838045 141.848C0.0301452 141.794 0 141.721 0 141.645C0 141.569 0.0301452 141.497 0.0838045 141.443C0.137464 141.389 0.210242 141.359 0.286127 141.359H197.714C197.79 141.359 197.863 141.389 197.916 141.443C197.97 141.497 198 141.569 198 141.645C198 141.721 197.97 141.794 197.916 141.848C197.863 141.901 197.79 141.931 197.714 141.931Z" fill="#CCCCCC"/>
<path d="M178.172 92.0303H62.0044C61.5111 92.0303 61.038 92.2262 60.6893 92.575C60.3405 92.9238 60.1445 93.3968 60.1445 93.8901C60.1445 94.3834 60.3405 94.8564 60.6893 95.2052C61.038 95.554 61.5111 95.7499 62.0044 95.7499H65.2948V140.243C65.2948 140.736 65.4908 141.209 65.8395 141.558C66.1883 141.907 66.6614 142.103 67.1546 142.103C67.6479 142.103 68.121 141.907 68.4697 141.558C68.8185 141.209 69.0145 140.736 69.0145 140.243L69.0427 95.7499H170.876V140.243C170.876 140.736 171.072 141.209 171.42 141.558C171.769 141.907 172.242 142.103 172.736 142.103C173.229 142.103 173.702 141.907 174.051 141.558C174.399 141.209 174.595 140.736 174.595 140.243V96.7306L175.136 95.7499H178.172C178.665 95.7499 179.138 95.554 179.487 95.2052C179.836 94.8564 180.032 94.3834 180.032 93.8901C180.032 93.3968 179.836 92.9238 179.487 92.575C179.138 92.2262 178.665 92.0303 178.172 92.0303Z" fill="#CCCCCC"/>
<path d="M126.409 93.0035H91.2203C90.539 93.0028 89.8857 92.7318 89.404 92.25C88.9222 91.7682 88.6512 91.1149 88.6504 90.4336V71.0602C88.6512 70.3788 88.9222 69.7256 89.404 69.2438C89.8857 68.762 90.539 68.491 91.2203 68.4902H126.409C127.09 68.491 127.743 68.762 128.225 69.2438C128.707 69.7256 128.978 70.3788 128.979 71.0602V90.4336C128.978 91.1149 128.707 91.7682 128.225 92.25C127.743 92.7318 127.09 93.0028 126.409 93.0035Z" fill="#3F3D56"/>
<path d="M126.409 70.4683H91.2211C91.0642 70.4686 90.9137 70.5311 90.8027 70.6421C90.6917 70.7531 90.6292 70.9036 90.6289 71.0605V90.4342C90.6292 90.5912 90.6917 90.7416 90.8027 90.8526C90.9137 90.9636 91.0642 91.0262 91.2211 91.0265H126.409C126.566 91.0262 126.717 90.9636 126.828 90.8526C126.939 90.7416 127.001 90.5912 127.001 90.4342V71.0605C127.001 70.9036 126.939 70.7531 126.828 70.6421C126.717 70.5311 126.566 70.4686 126.409 70.4683Z" fill="white"/>
<path d="M111.816 84.1846C111.816 84.1846 107.603 83.214 105.286 84.9935C102.969 86.7731 108.235 90.8176 108.235 90.8176L111.816 84.1846Z" fill="#2F2E41"/>
<path d="M109.022 82.3507C111.217 82.3507 112.996 80.5718 112.996 78.3773C112.996 76.1828 111.217 74.4038 109.022 74.4038C106.828 74.4038 105.049 76.1828 105.049 78.3773C105.049 80.5718 106.828 82.3507 109.022 82.3507Z" fill="#A0616A"/>
<path d="M105.948 72.7993C106.213 72.3496 106.597 71.9818 107.058 71.7367C107.519 71.4915 108.038 71.3784 108.559 71.41C109.104 71.4783 109.636 71.6272 110.137 71.8517L112.735 72.865C113.407 73.1272 114.143 73.4483 114.435 74.1082C114.706 74.7207 114.504 75.428 114.299 76.0657L113.327 79.0967C113.22 78.4107 113.035 77.739 112.777 77.0945C112.514 76.4456 112.04 75.9047 111.431 75.5597C110.756 75.2136 109.961 75.2208 109.203 75.2572C108.131 75.3088 106.964 75.4453 106.202 76.2019C105.797 76.6316 105.523 77.1674 105.411 77.7468C105.301 78.3232 105.245 78.9087 105.245 79.4955C104.805 78.7394 104.435 77.945 104.138 77.122C103.894 76.5092 103.755 75.8597 103.727 75.2007C103.701 74.5361 103.922 73.8854 104.346 73.3732C104.561 73.1229 104.842 72.9378 105.157 72.8387C105.472 72.7395 105.809 72.7303 106.129 72.8121L105.948 72.7993Z" fill="#2F2E41"/>
<path d="M118.509 87.6301C118.472 87.4959 118.396 87.3757 118.29 87.2846C118.185 87.1935 118.055 87.1355 117.917 87.1179C117.908 87.1116 117.898 87.1058 117.888 87.1008L111.956 83.7765C111.787 83.6816 111.588 83.6556 111.4 83.704C111.212 83.7524 111.049 83.8714 110.947 84.0363L109.325 86.663L106.881 84.2195L106.842 84.1806C106.717 84.0552 106.551 83.978 106.375 83.9626C106.198 83.9471 106.021 83.9944 105.876 84.0961L101.001 87.5099C100.993 87.5099 100.984 87.5128 100.975 87.5128C100.742 87.5517 100.529 87.669 100.371 87.8454C100.214 88.0217 100.121 88.2466 100.108 88.4828L99.9824 91.0264H119.451L118.509 87.6301Z" fill="#3CB161"/>
<path d="M129.376 90.6315H125.62C125.62 90.5266 125.578 90.426 125.504 90.3519C125.43 90.2777 125.329 90.2361 125.224 90.2361H124.038C123.933 90.2361 123.833 90.2777 123.758 90.3519C123.684 90.426 123.643 90.5266 123.643 90.6315H122.457C122.457 90.5266 122.415 90.426 122.341 90.3519C122.267 90.2777 122.166 90.2361 122.061 90.2361H120.875C120.77 90.2361 120.67 90.2777 120.595 90.3519C120.521 90.426 120.48 90.5266 120.48 90.6315H119.294C119.294 90.5266 119.252 90.426 119.178 90.3519C119.104 90.2777 119.003 90.2361 118.898 90.2361H117.712C117.607 90.2361 117.507 90.2777 117.432 90.3519C117.358 90.426 117.317 90.5266 117.317 90.6315H116.131C116.131 90.5266 116.089 90.426 116.015 90.3519C115.941 90.2777 115.84 90.2361 115.735 90.2361H114.549C114.444 90.2361 114.344 90.2777 114.269 90.3519C114.195 90.426 114.154 90.5266 114.154 90.6315H112.968C112.968 90.5266 112.926 90.426 112.852 90.3519C112.778 90.2777 112.677 90.2361 112.572 90.2361H111.386C111.281 90.2361 111.181 90.2777 111.106 90.3519C111.032 90.426 110.991 90.5266 110.991 90.6315H109.805C109.805 90.5266 109.763 90.426 109.689 90.3519C109.615 90.2777 109.514 90.2361 109.409 90.2361H108.223C108.118 90.2361 108.018 90.2777 107.943 90.3519C107.869 90.426 107.828 90.5266 107.828 90.6315H106.642C106.642 90.5266 106.6 90.426 106.526 90.3519C106.452 90.2777 106.351 90.2361 106.246 90.2361H105.06C104.955 90.2361 104.855 90.2777 104.78 90.3519C104.706 90.426 104.665 90.5266 104.665 90.6315H103.479C103.479 90.5266 103.437 90.426 103.363 90.3519C103.289 90.2777 103.188 90.2361 103.083 90.2361H101.897C101.792 90.2361 101.692 90.2777 101.617 90.3519C101.543 90.426 101.502 90.5266 101.502 90.6315H100.316C100.316 90.5266 100.274 90.426 100.2 90.3519C100.126 90.2777 100.025 90.2361 99.9201 90.2361H98.734C98.6291 90.2361 98.5286 90.2777 98.4544 90.3519C98.3803 90.426 98.3386 90.5266 98.3386 90.6315H97.1525C97.1525 90.5266 97.1108 90.426 97.0367 90.3519C96.9626 90.2777 96.862 90.2361 96.7571 90.2361H95.571C95.4662 90.2361 95.3656 90.2777 95.2914 90.3519C95.2173 90.426 95.1756 90.5266 95.1756 90.6315H93.9895C93.9895 90.5266 93.9479 90.426 93.8737 90.3519C93.7996 90.2777 93.699 90.2361 93.5941 90.2361H92.408C92.3031 90.2361 92.2026 90.2777 92.1284 90.3519C92.0543 90.426 92.0126 90.5266 92.0126 90.6315H88.2566C87.9423 90.632 87.6411 90.7571 87.419 90.9795C87.197 91.2019 87.0723 91.5033 87.0723 91.8176C87.0723 92.1319 87.197 92.4333 87.419 92.6557C87.6411 92.8781 87.9423 93.0032 88.2566 93.0037H129.376C129.69 93.0037 129.992 92.8788 130.214 92.6563C130.437 92.4339 130.562 92.1322 130.562 91.8176C130.562 91.503 130.437 91.2013 130.214 90.9789C129.992 90.7564 129.69 90.6315 129.376 90.6315Z" fill="#3F3D56"/>
<path d="M82.1413 83.7431V91.619H62.4094C61.8807 91.6374 61.3538 91.5491 60.8599 91.3595C60.3661 91.1699 59.9155 90.8828 59.535 90.5153C59.1545 90.1478 58.8519 89.7075 58.6452 89.2205C58.4385 88.7336 58.332 88.21 58.332 87.681C58.332 87.1521 58.4385 86.6285 58.6452 86.1415C58.8519 85.6546 59.1545 85.2143 59.535 84.8468C59.9155 84.4793 60.3661 84.1922 60.8599 84.0026C61.3538 83.8129 61.8807 83.7247 62.4094 83.7431H82.1413Z" fill="#F2F2F2"/>
<path d="M82.6263 91.5585C82.6262 91.6389 82.5943 91.7159 82.5375 91.7727C82.4807 91.8295 82.4037 91.8614 82.3234 91.8615H62.0582C60.9575 91.8615 59.902 91.4242 59.1237 90.646C58.3454 89.8677 57.9082 88.8121 57.9082 87.7115C57.9082 86.6109 58.3454 85.5553 59.1237 84.777C59.902 83.9988 60.9575 83.5615 62.0582 83.5615H82.3234C82.4037 83.5615 82.4807 83.5934 82.5375 83.6502C82.5944 83.7071 82.6263 83.7841 82.6263 83.8644C82.6263 83.9448 82.5944 84.0218 82.5375 84.0786C82.4807 84.1354 82.4037 84.1674 82.3234 84.1674H62.0582C61.1188 84.1682 60.2181 84.542 59.5542 85.2065C58.8902 85.8711 58.5172 86.7721 58.5172 87.7115C58.5172 88.6509 58.8902 89.5519 59.5542 90.2164C60.2181 90.881 61.1188 91.2548 62.0582 91.2556H82.3234C82.4037 91.2557 82.4807 91.2876 82.5375 91.3444C82.5943 91.4012 82.6262 91.4782 82.6263 91.5585Z" fill="#3CB161"/>
<path d="M82.1422 85.5606H60.938C60.93 85.5607 60.922 85.5592 60.9146 85.5561C60.9072 85.5531 60.9005 85.5487 60.8948 85.543C60.8892 85.5374 60.8847 85.5307 60.8816 85.5233C60.8785 85.5159 60.877 85.508 60.877 85.5C60.877 85.4921 60.8785 85.4841 60.8816 85.4768C60.8847 85.4694 60.8892 85.4627 60.8948 85.4571C60.9005 85.4514 60.9072 85.447 60.9146 85.444C60.922 85.4409 60.93 85.4394 60.938 85.4395H82.1422C82.1582 85.4396 82.1735 85.446 82.1848 85.4573C82.196 85.4687 82.2024 85.4841 82.2024 85.5C82.2024 85.516 82.196 85.5314 82.1848 85.5427C82.1735 85.5541 82.1582 85.5605 82.1422 85.5606Z" fill="#CCCCCC"/>
<path d="M82.1422 87.0147H60.938C60.93 87.0148 60.922 87.0132 60.9146 87.0102C60.9072 87.0072 60.9005 87.0027 60.8948 86.9971C60.8892 86.9915 60.8847 86.9848 60.8816 86.9774C60.8785 86.97 60.877 86.9621 60.877 86.9541C60.877 86.9461 60.8785 86.9382 60.8816 86.9308C60.8847 86.9235 60.8892 86.9168 60.8948 86.9111C60.9005 86.9055 60.9072 86.9011 60.9146 86.898C60.922 86.895 60.93 86.8935 60.938 86.8936H82.1422C82.1582 86.8937 82.1735 86.9001 82.1848 86.9114C82.196 86.9228 82.2024 86.9381 82.2024 86.9541C82.2024 86.9701 82.196 86.9855 82.1848 86.9968C82.1735 87.0082 82.1582 87.0146 82.1422 87.0147Z" fill="#CCCCCC"/>
<path d="M82.1422 88.4688H60.938C60.93 88.4689 60.922 88.4674 60.9146 88.4643C60.9072 88.4613 60.9005 88.4569 60.8948 88.4512C60.8892 88.4456 60.8847 88.4389 60.8816 88.4315C60.8785 88.4241 60.877 88.4162 60.877 88.4082C60.877 88.4002 60.8785 88.3923 60.8816 88.385C60.8847 88.3776 60.8892 88.3709 60.8948 88.3653C60.9005 88.3596 60.9072 88.3552 60.9146 88.3521C60.922 88.3491 60.93 88.3476 60.938 88.3477H82.1422C82.1582 88.3478 82.1735 88.3542 82.1848 88.3655C82.196 88.3769 82.2024 88.3922 82.2024 88.4082C82.2024 88.4242 82.196 88.4396 82.1848 88.4509C82.1735 88.4623 82.1582 88.4687 82.1422 88.4688Z" fill="#CCCCCC"/>
<path d="M82.1422 89.9227H60.938C60.93 89.9227 60.922 89.9212 60.9146 89.9182C60.9072 89.9152 60.9005 89.9107 60.8948 89.9051C60.8892 89.8995 60.8847 89.8928 60.8816 89.8854C60.8785 89.878 60.877 89.8701 60.877 89.8621C60.877 89.8541 60.8785 89.8462 60.8816 89.8388C60.8847 89.8314 60.8892 89.8248 60.8948 89.8191C60.9005 89.8135 60.9072 89.809 60.9146 89.806C60.922 89.803 60.93 89.8015 60.938 89.8015H82.1422C82.1582 89.8016 82.1735 89.8081 82.1848 89.8194C82.196 89.8308 82.2024 89.8461 82.2024 89.8621C82.2024 89.8781 82.196 89.8934 82.1848 89.9048C82.1735 89.9161 82.1582 89.9226 82.1422 89.9227Z" fill="#CCCCCC"/>
<path d="M78.4206 75.4455V83.3214H58.6887C58.16 83.3398 57.6331 83.2515 57.1392 83.0619C56.6454 82.8723 56.1948 82.5852 55.8143 82.2177C55.4338 81.8502 55.1312 81.4099 54.9245 80.9229C54.7178 80.436 54.6113 79.9124 54.6113 79.3834C54.6113 78.8544 54.7178 78.3309 54.9245 77.8439C55.1312 77.357 55.4338 76.9167 55.8143 76.5492C56.1948 76.1817 56.6454 75.8946 57.1392 75.705C57.6331 75.5153 58.16 75.4271 58.6887 75.4455H78.4206Z" fill="#F2F2F2"/>
<path d="M78.9056 83.2607C78.9055 83.341 78.8736 83.4181 78.8168 83.4749C78.76 83.5317 78.683 83.5636 78.6026 83.5636H58.3375C57.7925 83.5636 57.2528 83.4563 56.7493 83.2477C56.2458 83.0392 55.7884 82.7335 55.403 82.3481C55.0176 81.9628 54.7119 81.5053 54.5034 81.0018C54.2948 80.4983 54.1875 79.9586 54.1875 79.4136C54.1875 78.8687 54.2948 78.329 54.5034 77.8255C54.7119 77.322 55.0176 76.8645 55.403 76.4792C55.7884 76.0938 56.2458 75.7881 56.7493 75.5796C57.2528 75.371 57.7925 75.2637 58.3375 75.2637H78.6026C78.683 75.2637 78.76 75.2956 78.8168 75.3524C78.8736 75.4092 78.9056 75.4863 78.9056 75.5666C78.9056 75.6469 78.8736 75.724 78.8168 75.7808C78.76 75.8376 78.683 75.8695 78.6026 75.8695H58.3375C57.3981 75.8703 56.4974 76.2441 55.8334 76.9087C55.1695 77.5733 54.7965 78.4742 54.7965 79.4136C54.7965 80.3531 55.1695 81.254 55.8334 81.9186C56.4974 82.5832 57.3981 82.9569 58.3375 82.9578H78.6026C78.683 82.9578 78.76 82.9897 78.8168 83.0465C78.8736 83.1033 78.9055 83.1804 78.9056 83.2607Z" fill="#3F3D56"/>
<path d="M78.4215 77.263H57.2173C57.2093 77.2631 57.2013 77.2615 57.1939 77.2585C57.1865 77.2555 57.1798 77.251 57.1741 77.2454C57.1685 77.2398 57.164 77.2331 57.1609 77.2257C57.1578 77.2183 57.1562 77.2104 57.1562 77.2024C57.1562 77.1944 57.1578 77.1865 57.1609 77.1791C57.164 77.1718 57.1685 77.1651 57.1741 77.1594C57.1798 77.1538 57.1865 77.1494 57.1939 77.1463C57.2013 77.1433 57.2093 77.1418 57.2173 77.1418H78.4215C78.4375 77.142 78.4528 77.1484 78.464 77.1597C78.4753 77.1711 78.4816 77.1864 78.4816 77.2024C78.4816 77.2184 78.4753 77.2338 78.464 77.2451C78.4528 77.2565 78.4375 77.2629 78.4215 77.263Z" fill="#CCCCCC"/>
<path d="M78.4215 78.7171H57.2173C57.2093 78.7172 57.2013 78.7156 57.1939 78.7126C57.1865 78.7096 57.1798 78.7052 57.1741 78.6995C57.1685 78.6939 57.164 78.6872 57.1609 78.6798C57.1578 78.6724 57.1562 78.6645 57.1562 78.6565C57.1562 78.6485 57.1578 78.6406 57.1609 78.6332C57.164 78.6259 57.1685 78.6192 57.1741 78.6135C57.1798 78.6079 57.1865 78.6035 57.1939 78.6004C57.2013 78.5974 57.2093 78.5959 57.2173 78.5959H78.4215C78.4375 78.5961 78.4528 78.6025 78.464 78.6138C78.4753 78.6252 78.4816 78.6405 78.4816 78.6565C78.4816 78.6725 78.4753 78.6879 78.464 78.6992C78.4528 78.7106 78.4375 78.717 78.4215 78.7171Z" fill="#CCCCCC"/>
<path d="M78.4215 80.171H57.2173C57.2093 80.171 57.2013 80.1695 57.1939 80.1665C57.1865 80.1634 57.1798 80.159 57.1741 80.1534C57.1685 80.1477 57.164 80.141 57.1609 80.1337C57.1578 80.1263 57.1562 80.1184 57.1562 80.1104C57.1562 80.1024 57.1578 80.0945 57.1609 80.0871C57.164 80.0797 57.1685 80.073 57.1741 80.0674C57.1798 80.0618 57.1865 80.0573 57.1939 80.0543C57.2013 80.0513 57.2093 80.0498 57.2173 80.0498H78.4215C78.4375 80.0499 78.4528 80.0563 78.464 80.0677C78.4753 80.079 78.4816 80.0944 78.4816 80.1104C78.4816 80.1264 78.4753 80.1417 78.464 80.1531C78.4528 80.1644 78.4375 80.1708 78.4215 80.171Z" fill="#CCCCCC"/>
<path d="M78.4215 81.6251H57.2173C57.2093 81.6251 57.2013 81.6236 57.1939 81.6206C57.1865 81.6176 57.1798 81.6131 57.1741 81.6075C57.1685 81.6019 57.164 81.5952 57.1609 81.5878C57.1578 81.5804 57.1562 81.5725 57.1562 81.5645C57.1562 81.5565 57.1578 81.5486 57.1609 81.5412C57.164 81.5338 57.1685 81.5271 57.1741 81.5215C57.1798 81.5159 57.1865 81.5114 57.1939 81.5084C57.2013 81.5054 57.2093 81.5039 57.2173 81.5039H78.4215C78.4375 81.504 78.4528 81.5104 78.464 81.5218C78.4753 81.5331 78.4816 81.5485 78.4816 81.5645C78.4816 81.5805 78.4753 81.5958 78.464 81.6072C78.4528 81.6185 78.4375 81.625 78.4215 81.6251Z" fill="#CCCCCC"/>
<path d="M101.375 119.613V112.746C101.375 112.443 101.255 112.152 101.04 111.937C100.826 111.722 100.534 111.602 100.231 111.602H74.1933C73.8898 111.602 73.5987 111.722 73.384 111.937C73.1694 112.152 73.0488 112.443 73.0488 112.746V119.613H101.375Z" fill="#CCCCCC"/>
<path d="M101.375 122.189H73.0488V131.059H101.375V122.189Z" fill="#CCCCCC"/>
<path d="M73.0488 133.634V140.501C73.0488 140.804 73.1694 141.095 73.384 141.31C73.5987 141.525 73.8898 141.645 74.1933 141.645H100.231C100.534 141.645 100.826 141.525 101.04 141.31C101.255 141.095 101.375 140.804 101.375 140.501V133.634H73.0488Z" fill="#CCCCCC"/>
<path d="M87.0693 116.752C87.5434 116.752 87.9277 116.368 87.9277 115.894C87.9277 115.42 87.5434 115.035 87.0693 115.035C86.5952 115.035 86.2109 115.42 86.2109 115.894C86.2109 116.368 86.5952 116.752 87.0693 116.752Z" fill="white"/>
<path d="M87.0693 128.197C87.5434 128.197 87.9277 127.813 87.9277 127.339C87.9277 126.865 87.5434 126.48 87.0693 126.48C86.5952 126.48 86.2109 126.865 86.2109 127.339C86.2109 127.813 86.5952 128.197 87.0693 128.197Z" fill="white"/>
<path d="M87.1142 139.4C87.5883 139.4 87.9726 139.016 87.9726 138.542C87.9726 138.068 87.5883 137.683 87.1142 137.683C86.6402 137.683 86.2559 138.068 86.2559 138.542C86.2559 139.016 86.6402 139.4 87.1142 139.4Z" fill="white"/>
<path d="M98.1628 103.772V111.648H78.4309C77.9022 111.666 77.3752 111.578 76.8814 111.389C76.3876 111.199 75.937 110.912 75.5565 110.544C75.176 110.177 74.8734 109.737 74.6667 109.25C74.46 108.763 74.3535 108.239 74.3535 107.71C74.3535 107.181 74.46 106.658 74.6667 106.171C74.8734 105.684 75.176 105.243 75.5565 104.876C75.937 104.508 76.3876 104.221 76.8814 104.032C77.3752 103.842 77.9022 103.754 78.4309 103.772H98.1628Z" fill="#F2F2F2"/>
<path d="M98.6493 111.587C98.6492 111.668 98.6173 111.745 98.5605 111.801C98.5037 111.858 98.4267 111.89 98.3463 111.89H78.0812C77.5359 111.891 76.9959 111.784 76.492 111.575C75.9881 111.367 75.5302 111.061 75.1444 110.676C74.7587 110.291 74.4527 109.833 74.244 109.329C74.0352 108.825 73.9277 108.286 73.9277 107.74C73.9277 107.195 74.0352 106.655 74.244 106.151C74.4527 105.648 74.7587 105.19 75.1444 104.805C75.5302 104.419 75.9881 104.114 76.492 103.905C76.9959 103.697 77.5359 103.59 78.0812 103.59H98.3463C98.4267 103.59 98.5037 103.622 98.5605 103.679C98.6173 103.736 98.6493 103.813 98.6493 103.893C98.6493 103.974 98.6173 104.051 98.5605 104.107C98.5037 104.164 98.4267 104.196 98.3463 104.196H78.0812C77.1417 104.197 76.2411 104.571 75.5771 105.235C74.9132 105.9 74.5402 106.801 74.5402 107.74C74.5402 108.68 74.9132 109.581 75.5771 110.245C76.2411 110.91 77.1417 111.284 78.0812 111.284H98.3463C98.4267 111.284 98.5037 111.316 98.5605 111.373C98.6173 111.43 98.6492 111.507 98.6493 111.587Z" fill="#3F3D56"/>
<path d="M98.1637 105.589H76.9594C76.9514 105.589 76.9435 105.588 76.9361 105.585C76.9287 105.582 76.922 105.577 76.9163 105.572C76.9107 105.566 76.9062 105.559 76.9031 105.552C76.9 105.545 76.8984 105.537 76.8984 105.529C76.8984 105.521 76.9 105.513 76.9031 105.506C76.9062 105.498 76.9107 105.491 76.9163 105.486C76.922 105.48 76.9287 105.476 76.9361 105.473C76.9435 105.47 76.9514 105.468 76.9594 105.468H98.1637C98.1797 105.468 98.195 105.475 98.2062 105.486C98.2175 105.498 98.2238 105.513 98.2238 105.529C98.2238 105.545 98.2175 105.56 98.2062 105.572C98.195 105.583 98.1797 105.589 98.1637 105.589Z" fill="#CCCCCC"/>
<path d="M98.1637 107.044H76.9594C76.9514 107.044 76.9435 107.042 76.9361 107.039C76.9287 107.036 76.922 107.032 76.9163 107.026C76.9107 107.02 76.9062 107.014 76.9031 107.006C76.9 106.999 76.8984 106.991 76.8984 106.983C76.8984 106.975 76.9 106.967 76.9031 106.96C76.9062 106.952 76.9107 106.946 76.9163 106.94C76.922 106.934 76.9287 106.93 76.9361 106.927C76.9435 106.924 76.9514 106.922 76.9594 106.922H98.1637C98.1797 106.922 98.195 106.929 98.2062 106.94C98.2175 106.952 98.2238 106.967 98.2238 106.983C98.2238 106.999 98.2175 107.014 98.2062 107.026C98.195 107.037 98.1797 107.043 98.1637 107.044Z" fill="#CCCCCC"/>
<path d="M98.1637 108.498H76.9594C76.9514 108.498 76.9435 108.496 76.9361 108.493C76.9287 108.49 76.922 108.486 76.9163 108.48C76.9107 108.474 76.9062 108.468 76.9031 108.46C76.9 108.453 76.8984 108.445 76.8984 108.437C76.8984 108.429 76.9 108.421 76.9031 108.414C76.9062 108.406 76.9107 108.4 76.9163 108.394C76.922 108.388 76.9287 108.384 76.9361 108.381C76.9435 108.378 76.9514 108.376 76.9594 108.376H98.1637C98.1797 108.377 98.195 108.383 98.2062 108.394C98.2175 108.406 98.2238 108.421 98.2238 108.437C98.2238 108.453 98.2175 108.468 98.2062 108.48C98.195 108.491 98.1797 108.497 98.1637 108.498Z" fill="#CCCCCC"/>
<path d="M98.1637 109.952H76.9594C76.9514 109.952 76.9435 109.95 76.9361 109.947C76.9287 109.944 76.922 109.94 76.9163 109.934C76.9107 109.929 76.9062 109.922 76.9031 109.914C76.9 109.907 76.8984 109.899 76.8984 109.891C76.8984 109.883 76.9 109.875 76.9031 109.868C76.9062 109.86 76.9107 109.854 76.9163 109.848C76.922 109.843 76.9287 109.838 76.9361 109.835C76.9435 109.832 76.9514 109.831 76.9594 109.831H98.1637C98.1797 109.831 98.195 109.837 98.2062 109.848C98.2175 109.86 98.2238 109.875 98.2238 109.891C98.2238 109.907 98.2175 109.923 98.2062 109.934C98.195 109.945 98.1797 109.952 98.1637 109.952Z" fill="#CCCCCC"/>
<path d="M71.5645 52.3674V2.15209C71.5651 1.58152 71.792 1.0345 72.1955 0.631051C72.599 0.227597 73.146 0.000649004 73.7165 0H113.411C113.981 0.000652783 114.528 0.227602 114.932 0.631055C115.335 1.03451 115.562 1.58152 115.563 2.15209V52.3674C115.562 52.938 115.335 53.485 114.932 53.8884C114.528 54.2919 113.981 54.5188 113.411 54.5195H73.7165C73.146 54.5188 72.599 54.2919 72.1955 53.8884C71.792 53.485 71.5651 52.938 71.5645 52.3674ZM73.7165 0.478242C73.2728 0.478739 72.8473 0.655251 72.5335 0.96905C72.2197 1.28285 72.0432 1.70831 72.0427 2.15209V52.3674C72.0432 52.8112 72.2197 53.2366 72.5335 53.5504C72.8473 53.8642 73.2728 54.0407 73.7165 54.0412H113.411C113.854 54.0407 114.28 53.8642 114.594 53.5504C114.907 53.2366 115.084 52.8112 115.084 52.3674V2.15209C115.084 1.70831 114.907 1.28285 114.594 0.96905C114.28 0.655251 113.854 0.47874 113.411 0.478242H73.7165Z" fill="#E6E6E6"/>
<path d="M95.7891 23.0612V12.7504C95.7894 12.4651 95.9028 12.1916 96.1046 11.9898C96.3063 11.7881 96.5798 11.6746 96.8651 11.6743H105.603C105.888 11.6746 106.161 11.7881 106.363 11.9898C106.565 12.1916 106.678 12.4651 106.679 12.7504V23.0612C106.678 23.3464 106.565 23.6199 106.363 23.8217C106.161 24.0234 105.888 24.1369 105.603 24.1372H96.8651C96.5798 24.1369 96.3063 24.0234 96.1046 23.8217C95.9028 23.6199 95.7894 23.3464 95.7891 23.0612Z" fill="#3CB161"/>
<path d="M78.8105 27.8436V17.5328C78.8109 17.2475 78.9243 16.974 79.1261 16.7723C79.3278 16.5706 79.6013 16.4571 79.8866 16.4568H88.6241C88.9093 16.4571 89.1829 16.5706 89.3846 16.7723C89.5863 16.974 89.6998 17.2475 89.7001 17.5328V27.8436C89.6998 28.1289 89.5863 28.4024 89.3846 28.6041C89.1829 28.8059 88.9093 28.9193 88.6241 28.9197H79.8866C79.6013 28.9193 79.3278 28.8059 79.1261 28.6041C78.9243 28.4024 78.8109 28.1289 78.8105 27.8436Z" fill="#CCCCCC"/>
<path d="M92.4395 42.43V32.1193C92.4398 31.834 92.5532 31.5605 92.755 31.3587C92.9567 31.157 93.2302 31.0435 93.5155 31.0432H102.253C102.538 31.0435 102.812 31.157 103.013 31.3587C103.215 31.5605 103.329 31.834 103.329 32.1193V42.43C103.329 42.7153 103.215 42.9888 103.013 43.1906C102.812 43.3923 102.538 43.5058 102.253 43.5061H93.5155C93.2302 43.5058 92.9567 43.3923 92.755 43.1906C92.5532 42.9888 92.4398 42.7153 92.4395 42.43Z" fill="#03386E"/>
<path d="M144.655 89.5701H135.665C135.58 89.5701 135.496 89.5896 135.419 89.6274L133.15 90.7633C133.076 90.795 133.012 90.848 132.967 90.9157C132.922 90.9834 132.898 91.0627 132.898 91.1438C132.898 91.225 132.922 91.3043 132.967 91.372C133.012 91.4396 133.076 91.4927 133.15 91.5244L135.419 92.6603C135.496 92.698 135.58 92.7176 135.665 92.7175H144.655C144.779 92.7247 144.901 92.6828 144.994 92.6008C145.087 92.5189 145.145 92.4035 145.153 92.2798V90.0079C145.145 89.8841 145.087 89.7688 144.994 89.6868C144.901 89.6049 144.779 89.563 144.655 89.5701Z" fill="#3F3D56"/>
<path d="M145.152 90.0079V92.2798C145.144 92.4036 145.086 92.5189 144.993 92.6008C144.9 92.6828 144.778 92.7247 144.654 92.7175H142.863V89.5701H144.654C144.778 89.563 144.9 89.6049 144.993 89.6868C145.086 89.7688 145.144 89.8841 145.152 90.0079Z" fill="#3CB161"/>
<path d="M144.588 72.5741C144.995 72.3983 145.435 72.3106 145.878 72.3167C146.322 72.3228 146.759 72.4225 147.161 72.6092C147.564 72.796 147.922 73.0657 148.213 73.4006C148.503 73.7355 148.72 74.128 148.849 74.5525C148.889 74.6871 148.919 74.8243 148.94 74.9631L161.512 81.1973L164.421 79.2692L168.041 83.4368L163.599 87.0448C163.065 87.4753 162.406 87.7221 161.72 87.7485C161.035 87.7749 160.359 87.5796 159.793 87.1916L147.038 78.3708C146.943 78.411 146.846 78.4464 146.748 78.4767C146.323 78.6051 145.876 78.6423 145.436 78.586C144.996 78.5296 144.573 78.3809 144.195 78.1497C143.816 77.9184 143.491 77.6098 143.24 77.244C142.989 76.8782 142.818 76.4636 142.739 76.0272C142.715 75.9006 142.7 75.7725 142.692 75.6439C142.657 74.9999 142.82 74.3604 143.159 73.8116C143.497 73.2628 143.996 72.8309 144.588 72.5741Z" fill="#FFB8B8"/>
<path d="M170.771 110.958H157.035C157.035 111.353 142.877 111.673 142.877 111.673C142.655 111.84 142.452 112.032 142.273 112.245C141.735 112.887 141.442 113.697 141.443 114.534V115.107C141.444 116.055 141.821 116.965 142.491 117.635C143.162 118.306 144.071 118.683 145.02 118.683H170.771C171.72 118.682 172.629 118.305 173.3 117.635C173.97 116.964 174.347 116.055 174.348 115.107V114.534C174.347 113.586 173.969 112.677 173.299 112.007C172.629 111.336 171.72 110.959 170.771 110.958Z" fill="#3F3D56"/>
<path d="M155.831 142.576H159.551V118.541H155.831V142.576Z" fill="#3F3D56"/>
<path d="M145.244 142.445C145.244 142.847 150.881 142.601 157.834 142.601C164.787 142.601 170.423 142.847 170.423 142.445C170.423 142.043 164.787 138.856 157.834 138.856C150.881 138.856 145.244 142.043 145.244 142.445Z" fill="#3F3D56"/>
<path d="M148.6 139.628L145.093 139.628L143.424 130.53L148.601 130.53L148.6 139.628Z" fill="#FFB8B8"/>
<path d="M149.496 143.028L138.186 143.028V142.885C138.186 142.307 138.299 141.734 138.521 141.2C138.742 140.666 139.066 140.181 139.475 139.772C139.884 139.363 140.369 139.039 140.903 138.817C141.437 138.596 142.01 138.482 142.588 138.482H142.588L149.497 138.483L149.496 143.028Z" fill="#2F2E41"/>
<path d="M143.354 133.986L136.361 118.304C135.777 116.982 135.713 115.489 136.18 114.122C136.648 112.755 137.613 111.614 138.884 110.927L154.053 102.793L160.975 102.204L167.36 101.624L167.406 101.701C167.465 101.801 168.837 104.172 167.909 106.772C167.205 108.744 165.375 110.285 162.468 111.351C155.682 113.839 147.844 115.965 144.789 116.764C144.654 116.798 144.528 116.861 144.419 116.948C144.31 117.034 144.22 117.143 144.156 117.267C144.092 117.39 144.054 117.524 144.044 117.662C144.035 117.8 144.054 117.938 144.1 118.068L150.597 132.665C150.665 132.85 150.689 133.048 150.668 133.244C150.647 133.44 150.582 133.629 150.477 133.796C150.371 133.962 150.229 134.102 150.061 134.206C149.893 134.309 149.703 134.372 149.507 134.39L144.652 134.743C144.611 134.747 144.57 134.749 144.529 134.749C144.281 134.749 144.037 134.677 143.829 134.542C143.62 134.406 143.456 134.213 143.354 133.986Z" fill="#2F2E41"/>
<path d="M150.317 139.628L146.81 139.628L145.141 130.53L150.318 130.53L150.317 139.628Z" fill="#FFB8B8"/>
<path d="M151.213 143.028L139.902 143.028V142.885C139.902 142.307 140.016 141.734 140.237 141.2C140.459 140.666 140.783 140.181 141.192 139.772C141.601 139.363 142.086 139.039 142.62 138.817C143.154 138.596 143.727 138.482 144.305 138.482H144.305L151.213 138.483L151.213 143.028Z" fill="#2F2E41"/>
<path d="M145.356 134.845L138.363 119.163C137.779 117.841 137.715 116.348 138.182 114.981C138.65 113.613 139.615 112.473 140.886 111.785L156.055 103.651L162.977 103.063L169.362 102.482L169.408 102.56C169.466 102.66 170.839 105.031 169.911 107.631C169.207 109.603 167.377 111.143 164.469 112.209C157.684 114.697 149.846 116.824 146.791 117.622C146.656 117.657 146.53 117.72 146.421 117.806C146.311 117.893 146.222 118.002 146.158 118.126C146.094 118.248 146.056 118.383 146.046 118.52C146.037 118.658 146.055 118.797 146.102 118.927L152.599 133.523C152.667 133.708 152.691 133.907 152.67 134.103C152.649 134.299 152.584 134.487 152.478 134.654C152.373 134.821 152.231 134.961 152.063 135.064C151.895 135.167 151.705 135.23 151.509 135.249L146.654 135.602C146.613 135.606 146.572 135.608 146.531 135.608C146.283 135.608 146.039 135.536 145.831 135.4C145.622 135.265 145.458 135.072 145.356 134.845Z" fill="#2F2E41"/>
<path d="M141.873 86.9382C138.934 83.0293 136.611 78.6937 134.984 74.082C134.89 73.8061 134.897 73.5058 135.003 73.2344C135.109 72.963 135.309 72.7382 135.565 72.6L145.621 67.2118C145.784 67.124 145.965 67.0744 146.149 67.0669C146.334 67.0594 146.518 67.0942 146.687 67.1685C146.86 67.2435 147.013 67.3567 147.135 67.4997C147.257 67.6427 147.345 67.8117 147.392 67.9937C148.562 72.4377 150.762 76.5438 153.814 79.9798C153.94 80.1197 154.032 80.2863 154.083 80.4671C154.135 80.648 154.144 80.8381 154.111 81.0232C154.079 81.2053 154.006 81.3777 153.898 81.5274C153.789 81.677 153.648 81.7999 153.485 81.8867L143.429 87.275C143.171 87.4121 142.874 87.4536 142.589 87.3919C142.304 87.3302 142.05 87.1695 141.873 86.9382Z" fill="#CCCCCC"/>
<path d="M142.558 86.4224C142.612 86.4899 142.688 86.5364 142.773 86.5539C142.858 86.5714 142.946 86.5588 143.022 86.5182L153.079 81.1299C153.127 81.1044 153.17 81.068 153.202 81.0235C153.234 80.9789 153.256 80.9275 153.265 80.8732C153.276 80.8159 153.273 80.7569 153.257 80.7009C153.241 80.6449 153.212 80.5934 153.172 80.5505C150.031 77.0133 147.766 72.7862 146.561 68.2112C146.547 68.1547 146.52 68.1022 146.482 68.0578C146.445 68.0133 146.397 67.9782 146.344 67.9552C146.293 67.9326 146.239 67.9221 146.183 67.9244C146.128 67.9267 146.074 67.9417 146.026 67.9683L135.97 73.3565C135.894 73.3977 135.835 73.4641 135.802 73.5444C135.77 73.6247 135.767 73.7138 135.793 73.7963C137.391 78.3255 139.672 82.5835 142.558 86.4224Z" fill="white"/>
<path d="M175.28 85.5007L167.405 88.4935L165.482 83.1524C165.227 82.4432 165.23 81.6666 165.492 80.9598C165.754 80.253 166.257 79.6615 166.913 79.2899C167.576 78.9139 168.352 78.7876 169.101 78.9337C169.849 79.0798 170.521 79.4887 170.994 80.0866L175.28 85.5007Z" fill="#3CB161"/>
<path d="M155.248 106.663C155.082 106.546 154.943 106.394 154.841 106.219C154.738 106.044 154.674 105.849 154.652 105.647C153.643 96.2311 154.346 88.862 156.8 83.1192C157.232 82.1287 157.883 81.2491 158.704 80.5464C159.525 79.8437 160.494 79.3362 161.54 79.0621L167.906 78.7407L167.939 78.7566C169.376 79.4603 170.547 80.6081 171.28 82.03C172.013 83.4519 172.268 85.0721 172.008 86.6504C169.96 92.0477 168.245 97.6672 169.553 102.2C169.608 102.39 169.624 102.588 169.6 102.784C169.576 102.98 169.513 103.169 169.414 103.34C169.319 103.505 169.19 103.649 169.037 103.763C168.884 103.876 168.709 103.957 168.523 104.001L156.397 106.885C156.201 106.932 155.997 106.936 155.799 106.898C155.601 106.86 155.413 106.779 155.248 106.663Z" fill="#3CB161"/>
<path d="M165.78 76.3628C169.661 76.3628 172.807 73.2164 172.807 69.3352C172.807 65.454 169.661 62.3076 165.78 62.3076C161.898 62.3076 158.752 65.454 158.752 69.3352C158.752 73.2164 161.898 76.3628 165.78 76.3628Z" fill="#FFB8B8"/>
<path d="M146.28 74.9014L140.803 77.3191C140.595 77.4107 140.359 77.416 140.146 77.3338C139.934 77.2516 139.763 77.0885 139.671 76.8804L139.536 76.5735C139.444 76.3652 139.439 76.1291 139.521 75.9169C139.603 75.7047 139.766 75.5338 139.974 75.4416L145.451 73.024C145.66 72.9323 145.896 72.927 146.108 73.0092C146.32 73.0915 146.491 73.2545 146.583 73.4626L146.719 73.7695C146.81 73.9778 146.816 74.2139 146.733 74.4261C146.651 74.6384 146.488 74.8093 146.28 74.9014Z" fill="#CCCCCC"/>
<path d="M148.284 78.6209L142.807 81.0385C142.599 81.1302 142.363 81.1355 142.15 81.0533C141.938 80.9711 141.767 80.808 141.675 80.5999L141.54 80.293C141.448 80.0847 141.443 79.8486 141.525 79.6364C141.607 79.4242 141.77 79.2532 141.978 79.1611L147.455 76.7435C147.664 76.6518 147.9 76.6465 148.112 76.7287C148.324 76.8109 148.495 76.974 148.587 77.1821L148.723 77.489C148.814 77.6973 148.82 77.9334 148.737 78.1456C148.655 78.3578 148.492 78.5288 148.284 78.6209Z" fill="#CCCCCC"/>
<path d="M152.507 93.1497L140.297 83.5169C140.2 83.5512 140.101 83.5803 140.001 83.6044C139.57 83.7052 139.122 83.7142 138.688 83.6308C138.253 83.5475 137.841 83.3736 137.478 83.1204C137.112 82.8671 136.805 82.5387 136.577 82.1571C136.348 81.7755 136.204 81.3495 136.154 80.9077C136.072 80.2014 136.231 79.4881 136.606 78.8837C136.98 78.2792 137.548 77.819 138.217 77.5777C138.634 77.428 139.078 77.3681 139.521 77.4021C139.963 77.436 140.393 77.563 140.782 77.7747C141.172 77.9864 141.513 78.2781 141.782 78.6306C142.051 78.9831 142.243 79.3885 142.344 79.8202C142.376 79.957 142.398 80.0958 142.41 80.2357L154.565 87.2479L157.59 85.5064L160.941 89.8933L156.244 93.2408C155.694 93.6294 155.034 93.8305 154.361 93.8141C153.688 93.7977 153.038 93.5647 152.507 93.1497Z" fill="#FFB8B8"/>
<path d="M162.43 91.2596L155.463 86.5221L158.737 81.8849C159.172 81.2691 159.81 80.8269 160.539 80.6363C161.269 80.4457 162.042 80.5191 162.722 80.8434C163.411 81.1715 163.959 81.7349 164.268 82.4318C164.578 83.1288 164.627 83.9134 164.409 84.6439L162.43 91.2596Z" fill="#3CB161"/>
<path d="M163.204 68.2886C161.398 69.5248 159.026 70.7955 157.181 69.4791C155.97 68.6147 155.588 67.014 156.079 65.6092C156.963 63.0831 159.39 61.971 161.711 61.1186C164.728 60.0104 168.013 59.1288 171.127 59.9224C174.242 60.7161 176.994 63.7316 176.432 66.8962C175.98 69.4411 173.58 71.5586 173.92 74.1208C174.263 76.6994 177.163 78.0567 179.723 78.5176C182.284 78.9784 185.148 79.1265 186.988 80.9655C189.336 83.3114 188.749 87.5044 186.541 89.9812C184.332 92.458 180.999 93.5807 177.77 94.3439C173.491 95.3552 168.863 95.8866 164.799 94.2084C160.735 92.5301 157.573 88.0125 158.75 83.7762C159.247 81.9869 160.419 80.4746 161.551 79.0024C162.683 77.5301 163.829 75.9906 164.261 74.1843C164.621 72.6791 164.355 70.9314 163.357 69.8023C163.175 69.6047 163.061 69.3546 163.03 69.088C163 68.8213 163.054 68.5519 163.186 68.3183L163.204 68.2886Z" fill="#2F2E41"/>
<path d="M31.2083 102.433C29.3974 103.07 27.4531 103.229 25.5627 102.896C23.6724 102.563 21.8996 101.749 20.4152 100.532C16.6349 97.359 15.4497 92.1316 14.4853 87.2914C13.5345 82.5192 12.5836 77.747 11.6328 72.9749L17.6048 77.0869C21.8994 80.0441 26.2908 83.0959 29.2645 87.3792C32.2381 91.6625 33.5361 97.5096 31.1468 102.144" fill="#E6E6E6"/>
<path d="M30.6984 119.766C31.3029 115.364 31.9244 110.904 31.5004 106.454C31.1239 102.502 29.9182 98.6422 27.4635 95.4773C26.1605 93.8005 24.5751 92.3638 22.7785 91.2319C22.31 90.9362 21.8788 91.6786 22.3452 91.9731C25.4539 93.9378 27.8584 96.8389 29.212 100.258C30.7069 104.061 30.947 108.206 30.6894 112.245C30.5336 114.688 30.2034 117.115 29.8707 119.538C29.8445 119.648 29.8608 119.763 29.9165 119.861C29.9721 119.959 30.0629 120.032 30.1705 120.066C30.2802 120.096 30.3972 120.081 30.496 120.025C30.5948 119.969 30.6676 119.876 30.6984 119.766H30.6984Z" fill="#F2F2F2"/>
<path d="M24.8775 111.976C24.1009 113.156 23.0333 114.116 21.7777 114.764C20.5221 115.413 19.1207 115.726 17.7087 115.676C14.0797 115.503 11.0543 112.97 8.33081 110.566L0.275391 103.454L5.60674 103.198C9.44074 103.015 13.3736 102.844 17.0254 104.026C20.6771 105.208 24.045 108.054 24.7127 111.834" fill="#E6E6E6"/>
<path d="M32.4053 122.297C29.4961 117.15 26.1216 111.428 20.0919 109.6C18.4154 109.093 16.6574 108.912 14.9127 109.065C14.3628 109.112 14.5001 109.96 15.049 109.913C17.9735 109.67 20.8924 110.442 23.3142 112.099C25.6447 113.686 27.4592 115.891 28.995 118.23C29.9358 119.662 30.7784 121.156 31.6212 122.647C31.8905 123.123 32.6778 122.779 32.4053 122.297Z" fill="#F2F2F2"/>
<path d="M37.0693 127.716C36.9713 126.58 36.5634 125.493 35.8903 124.573C35.2171 123.652 34.3044 122.935 33.2515 122.497V119.521H28.2601V122.591C27.2591 123.05 26.3975 123.766 25.7634 124.666C25.1293 125.566 24.7452 126.619 24.6503 127.716L23.4766 141.359H38.243L37.0693 127.716Z" fill="#F2F2F2"/>
</g>
<defs>
<clipPath id="clip0">
<rect width="198" height="143.028" fill="white"/>
</clipPath>
</defs>
</svg>
